<mxfile host="app.diagrams.net" modified="2023-07-17T13:39:32.064Z" agent="Mozilla/5.0 (Windows NT 10.0; Win64; x64) AppleWebKit/537.36 (KHTML, like Gecko) Chrome/114.0.0.0 Safari/537.36 Edg/114.0.1823.82" etag="povUcHezhzJSRkpo4ttY" version="21.6.2" type="github">
  <diagram name="第 1 页" id="bpQDDGKC49bfd05ix013">
    <mxGraphModel dx="2048" dy="743" grid="1" gridSize="10" guides="1" tooltips="1" connect="1" arrows="1" fold="1" page="1" pageScale="1" pageWidth="827" pageHeight="1169" math="0" shadow="0">
      <root>
        <mxCell id="0" />
        <mxCell id="1" parent="0" />
        <mxCell id="6wI2NpHrl8XzdoIj4jeI-30" value="&lt;pre style=&quot;box-sizing: border-box; font-size: 0.9rem; font-family: SFMono-Regular, Consolas, &amp;quot;Liberation Mono&amp;quot;, Menlo, Courier, monospace; margin-top: 0px; margin-bottom: 1em; overflow: auto; border: none; border-radius: 4px; padding: 1rem; line-height: 1.9; background-color: rgb(241, 243, 247); font-style: normal; font-variant-ligatures: normal; font-variant-caps: normal; font-weight: 400; letter-spacing: normal; orphans: 2; text-align: start; text-indent: 0px; text-transform: none; widows: 2; word-spacing: 0px; -webkit-text-stroke-width: 0px; text-decoration-thickness: initial; text-decoration-style: initial; text-decoration-color: initial;&quot;&gt;&lt;pre style=&quot;box-sizing: border-box; font-size: 0.9rem; font-family: SFMono-Regular, Consolas, &amp;quot;Liberation Mono&amp;quot;, Menlo, Courier, monospace; margin-top: 0px; margin-bottom: 1em; overflow: auto; border: none; border-radius: 4px; padding: 1rem; line-height: 1.9;&quot;&gt;&lt;code style=&quot;box-sizing: border-box; font-size: 1em; font-family: Courier, Monaco, Consolas, &amp;quot;Liberation Mono&amp;quot;, monospace; overflow-x: auto; overflow-wrap: normal; border: none; border-radius: 3px;&quot; class=&quot;lang-java hljs&quot;&gt;&lt;span style=&quot;color: rgb(119, 0, 136); box-sizing: border-box;&quot; class=&quot;hljs-keyword&quot;&gt;private&lt;/span&gt;&lt;font color=&quot;rgba(0, 0, 0, 0.65)&quot;&gt; &lt;/font&gt;&lt;span style=&quot;color: rgb(119, 0, 136); box-sizing: border-box;&quot; class=&quot;hljs-keyword&quot;&gt;transient&lt;/span&gt;&lt;font color=&quot;rgba(0, 0, 0, 0.65)&quot;&gt; &lt;/font&gt;&lt;span style=&quot;color: rgb(119, 0, 136); box-sizing: border-box;&quot; class=&quot;hljs-keyword&quot;&gt;volatile&lt;/span&gt;&lt;font color=&quot;rgba(0, 0, 0, 0.65)&quot;&gt; Node head;&lt;br&gt;&lt;br&gt;&lt;/font&gt;&lt;span style=&quot;color: rgb(119, 0, 136); box-sizing: border-box;&quot; class=&quot;hljs-keyword&quot;&gt;private&lt;/span&gt;&lt;font color=&quot;rgba(0, 0, 0, 0.65)&quot;&gt; &lt;/font&gt;&lt;span style=&quot;color: rgb(119, 0, 136); box-sizing: border-box;&quot; class=&quot;hljs-keyword&quot;&gt;transient&lt;/span&gt;&lt;font color=&quot;rgba(0, 0, 0, 0.65)&quot;&gt; &lt;/font&gt;&lt;span style=&quot;color: rgb(119, 0, 136); box-sizing: border-box;&quot; class=&quot;hljs-keyword&quot;&gt;volatile&lt;/span&gt;&lt;font color=&quot;rgba(0, 0, 0, 0.65)&quot;&gt; Node tail;&lt;br&gt;&lt;/font&gt;&lt;font color=&quot;rgba(0, 0, 0, 0.65)&quot;&gt;&lt;br&gt;&lt;/font&gt;&lt;span style=&quot;color: rgb(119, 0, 136); box-sizing: border-box;&quot; class=&quot;hljs-keyword&quot;&gt;private&lt;/span&gt;&lt;font color=&quot;rgba(0, 0, 0, 0.65)&quot;&gt; &lt;/font&gt;&lt;span style=&quot;color: rgb(119, 0, 136); box-sizing: border-box;&quot; class=&quot;hljs-keyword&quot;&gt;volatile&lt;/span&gt;&lt;font color=&quot;rgba(0, 0, 0, 0.65)&quot;&gt; &lt;/font&gt;&lt;span style=&quot;color: rgb(119, 0, 136); box-sizing: border-box;&quot; class=&quot;hljs-keyword&quot;&gt;int&lt;/span&gt;&lt;font color=&quot;rgba(0, 0, 0, 0.65)&quot;&gt; state;&lt;br&gt;&lt;/font&gt;&lt;font color=&quot;rgba(0, 0, 0, 0.65)&quot;&gt;&lt;br&gt;&lt;/font&gt;&lt;span style=&quot;color: rgb(119, 0, 136); box-sizing: border-box;&quot; class=&quot;hljs-keyword&quot;&gt;private&lt;/span&gt;&lt;font color=&quot;rgba(0, 0, 0, 0.65)&quot;&gt; &lt;/font&gt;&lt;span style=&quot;color: rgb(119, 0, 136); box-sizing: border-box;&quot; class=&quot;hljs-keyword&quot;&gt;transient&lt;/span&gt;&lt;font color=&quot;rgba(0, 0, 0, 0.65)&quot;&gt; Thread exclusiveOwnerThread; &lt;/font&gt;&lt;/code&gt;&lt;/pre&gt;&lt;/pre&gt;" style="text;whiteSpace=wrap;html=1;" vertex="1" parent="1">
          <mxGeometry x="-80" y="20" width="560" height="480" as="geometry" />
        </mxCell>
        <mxCell id="6wI2NpHrl8XzdoIj4jeI-31" value="" style="rounded=0;whiteSpace=wrap;html=1;fillColor=none;dashed=1;" vertex="1" parent="1">
          <mxGeometry x="-80" y="30" width="470" height="270" as="geometry" />
        </mxCell>
        <mxCell id="6wI2NpHrl8XzdoIj4jeI-33" value="&lt;font style=&quot;font-size: 16px;&quot;&gt;AQS四个属性&lt;/font&gt;" style="text;html=1;strokeColor=none;fillColor=#f8cecc;align=center;verticalAlign=middle;whiteSpace=wrap;rounded=0;" vertex="1" parent="1">
          <mxGeometry x="-80" width="110" height="30" as="geometry" />
        </mxCell>
      </root>
    </mxGraphModel>
  </diagram>
</mxfile>
